<svg width="15" height="11" viewBox="0 0 15 11" fill="none" xmlns="http://www.w3.org/2000/svg">
<path d="M12.75 1.5317C12.75 0.689267 12.075 0 11.25 0H9V1.5317H11.25V3.56121L8.64 6.89267H6V3.06341H3C1.3425 3.06341 0 4.43429 0 6.12682V8.42438H1.5C1.5 9.69569 2.505 10.7219 3.75 10.7219C4.995 10.7219 6 9.69569 6 8.42438H9.36L12.75 4.09731V1.5317ZM3.75 9.19023C3.3375 9.19023 3 8.8456 3 8.42438H4.5C4.5 8.8456 4.1625 9.19023 3.75 9.19023Z" fill="#323232"/>
<path d="M6 0.765869H2.25V2.29757H6V0.765869Z" fill="#323232"/>
<path d="M12.75 6.12683C11.505 6.12683 10.5 7.15307 10.5 8.42439C10.5 9.6957 11.505 10.7219 12.75 10.7219C13.995 10.7219 15 9.6957 15 8.42439C15 7.15307 13.995 6.12683 12.75 6.12683ZM12.75 9.19024C12.3375 9.19024 12 8.84561 12 8.42439C12 8.00317 12.3375 7.65854 12.75 7.65854C13.1625 7.65854 13.5 8.00317 13.5 8.42439C13.5 8.84561 13.1625 9.19024 12.75 9.19024Z" fill="#323232"/>
</svg>
